<?xml version="1.0" encoding="UTF-8"?>
<svg xmlns="http://www.w3.org/2000/svg" xmlns:xlink="http://www.w3.org/1999/xlink" version="1.1" id="Ebene_1" x="0px" y="0px" viewBox="0 0 280 89" style="enable-background:new 0 0 280 89;" xml:space="preserve">
<style type="text/css">
	.st0{fill:#FFFFFF;}
	.st1{fill:#E73337;}
	.st2{fill:#9FA1A2;}
	.st3{fill:#1D1D1B;}
</style>
<path class="st0" d="M246.3,2.8c0,2.3,0,27.5,0,29.7c2.3,0,27.4,0,29.7,0c0-2.3,0-27.5,0-29.7C273.7,2.8,248.6,2.8,246.3,2.8  L246.3,2.8z"></path>
<path class="st1" d="M277.3,1.5l-32.3,0l0,32.3l32.3,0L277.3,1.5L277.3,1.5z M264.4,20.9v8.4h-6.5v-8.4h-8.4v-6.5h8.4V6h6.5v8.4h8.4  v6.5L264.4,20.9L264.4,20.9z"></path>
<path class="st2" d="M131.1,60.1h-10.7v-1.7h10.7V60.1z M149.8,53.3l-0.6-1.7l-28.7,0v1.7H149.8z M120.4,61.8v1.7h10.7v-1.7H120.4z   M120.4,70.3h32.1l-0.5-1.7h-31.6V70.3z M120.4,46.5h10.8v-1.7h-10.8V46.5z M150.9,39.7l-0.9-1.7h-29.5v1.7H150.9L150.9,39.7z   M120.4,55v1.7H151l-0.6-1.7H120.4z M152.7,43.1l-0.9-1.7h-31.4v1.7H152.7z M120.4,65.2v1.7h31.2l-0.5-1.7H120.4L120.4,65.2z   M120.4,49.9h10.8v-1.7h-10.8V49.9z M106.3,38H95.6c-2.6,0.3-4.8,0.9-6.6,1.7h24.6C111.4,39,108.9,38.3,106.3,38z M116.6,41.4H85.8  c-0.8,0.5-1.5,1.1-2.1,1.7h31.5L116.6,41.4L116.6,41.4z M90.2,55h-11c0,0.5,0.1,1.1,0.2,1.7h11.1C90.3,56.1,90.2,55.5,90.2,55  L90.2,55z M90.9,58.4H79.7c0.2,0.6,0.3,1.1,0.6,1.7h11.5C91.4,59.5,91.1,59,90.9,58.4z M93.2,61.8H81.1c0.3,0.6,0.7,1.1,1.1,1.7h14  C95,63.1,94,62.5,93.2,61.8z M91.5,48.2H80.3c-0.2,0.6-0.4,1.2-0.6,1.7h11C90.9,49.3,91.1,48.7,91.5,48.2L91.5,48.2z M90.3,51.6h-11  c-0.1,0.6-0.2,1.2-0.2,1.7h11C90.2,52.8,90.2,52.2,90.3,51.6L90.3,51.6z M112.3,68.6H89.2c1.9,0.8,4.2,1.4,6.9,1.7h10.3  C108.6,70,110.6,69.4,112.3,68.6z M113,45.8l0.8-1h-4.4C110.8,45.1,112,45.5,113,45.8L113,45.8z M113.2,65.2H83.7  c0.6,0.6,1.4,1.2,2.2,1.7h28.7L113.2,65.2z M95.2,44.8h-13c-0.4,0.6-0.8,1.1-1.1,1.7h11.7C93.4,45.8,94.2,45.3,95.2,44.8z   M168.2,56.7L168.2,56.7l5.5,0c-0.5,0-1,0-1.5,0H168.2z M55.7,42.9c-1.1,0-2,0.1-2.9,0.2h5.7C57.7,43,56.7,42.9,55.7,42.9z   M120.4,58.4v1.7h0L120.4,58.4L120.4,58.4z M120.4,51.6v1.7h0L120.4,51.6L120.4,51.6z M120.4,61.8v1.7h0L120.4,61.8L120.4,61.8z   M120.4,68.6v1.7h0L120.4,68.6L120.4,68.6z M120.4,44.8v1.7h0L120.4,44.8L120.4,44.8z M120.4,55v1.7h0L120.4,55L120.4,55z   M120.4,41.4v1.7h0L120.4,41.4L120.4,41.4z M120.4,65.2v1.7h0L120.4,65.2L120.4,65.2z M120.4,48.2v1.7h0L120.4,48.2L120.4,48.2z   M220.8,46.5h17.7v-1.7h-16.4L220.8,46.5z M229.4,53.3h9.2v-1.7h-9C229.5,52.2,229.4,52.7,229.4,53.3L229.4,53.3z M229.1,56.7h9.4  V55h-9.3C229.2,55.6,229.1,56.2,229.1,56.7z M210.7,38h-9.8v1.7h9.7L210.7,38z M229.7,49.9h8.8v-1.7H230  C229.9,48.7,229.8,49.3,229.7,49.9z M200.9,65.2v1.7h14.5l1.4-1.7H200.9z M238.5,38h-11.3l-1.3,1.7h12.5L238.5,38L238.5,38z   M210.3,53.3c0-0.5,0-1,0-1.5v-0.2h-9.5v1.7H210.3z M210.7,60.1h10.2l1.4-1.7h-10.4C211.5,59,211.1,59.6,210.7,60.1L210.7,60.1z   M200.9,56.7h9.3c0-0.6,0.1-1.1,0.1-1.7h-9.4V56.7z M215.7,53.3h10.5c0.4-0.6,0.8-1.1,1.1-1.7h-10.4  C216.5,52.1,216.1,52.7,215.7,53.3z M213.1,56.7h10.6c0.4-0.5,0.9-1.1,1.3-1.7h-10.6C214,55.6,213.5,56.1,213.1,56.7z M200.9,63.5  h17.2l1.4-1.7h-18.6L200.9,63.5L200.9,63.5z M210.6,43.1l0-1.7h-9.7v1.7H210.6z M238.5,43.1v-1.7h-13.8l-1.3,1.7H238.5z M210.5,46.5  l0-1.7h-9.6v1.7H210.5z M228.9,66.9h9.6v-1.7h-9.6L228.9,66.9z M229,63.5h9.6v-1.7H229L229,63.5L229,63.5z M229,60.1h9.5v-1.7h-9.5  L229,60.1z M200.9,58.4v1.7h9c0.1-0.5,0.1-1.1,0.1-1.7H200.9z M228.9,68.6l0,1.7h9.7v-1.7H228.9z M228.4,49.9c0.4-0.6,0.7-1.2,1-1.7  h-9.9l-1.3,1.7H228.4L228.4,49.9z M200.9,68.6v1.7h11.7l1.4-1.7H200.9z M200.9,49.9h9.5l0-1.7h-9.5V49.9z M32.2,38H2.5v1.7h30.4  L32.2,38L32.2,38z M13.9,55H2.5v1.7h11.4V55z M13.9,65.2H2.5v1.7h11.4V65.2z M13.9,61.8H2.5v1.7h11.4V61.8z M2.5,70.3h11.4v-1.7H2.5  V70.3z M33.5,41.4h-31v1.7h31.6L33.5,41.4z M13.9,58.4H2.5v1.7h11.4V58.4z M13.9,51.6H2.5v1.7h11.4V51.6z M13.9,48.2H2.5v1.7h11.4  V48.2z M13.9,44.8H2.5v1.7h11.4V44.8z M47.2,55H35.9v1.7h11.3V55z M47.2,61.8H35.9v1.7h11.3V61.8z M55.7,42.9c1,0,2,0.1,2.8,0.2  h15.6c-0.4-0.5-0.9-1.1-1.6-1.7h-34c-0.1,0.1-0.2,0.2-0.3,0.2c-0.5,0.5-1,1-1.3,1.5h15.8C53.6,43,54.6,42.9,55.7,42.9L55.7,42.9z   M47.2,51.6H35.9v1.7h11.3V51.6z M75.2,65.2H63.9v1.7h11.2V65.2z M47.2,49c0-0.3,0-0.6,0-0.8H35.9v1.7h11.3V49z M47.2,58.4H35.9v1.7  h11.3V58.4z M47.2,68.6H35.9v1.7h11.3V68.6z M63.9,68.6v1.7h11.2v-1.7H63.9z M35.9,65.2v1.7h11.3v-1.7H35.9z M69.7,39.7  c-1.5-0.7-3.3-1.3-5.6-1.7h-17c-2.2,0.4-4.2,1-5.8,1.7H69.7L69.7,39.7z M63.9,61.8v1.7h11.2v-1.7H63.9z M75.2,58.4H63.9v1.7h11.2  V58.4z M48.1,45.1c0.1-0.1,0.2-0.2,0.3-0.3H36.2c-0.1,0.5-0.2,1.1-0.3,1.7h11.5C47.5,45.9,47.7,45.6,48.1,45.1L48.1,45.1z   M74.9,44.8H62.7c0.5,0.5,0.9,1.1,1,1.7h11.4C75.1,45.8,75.1,45.2,74.9,44.8z M75.2,55H63.9v1.7h11.2V55z M75.2,51.6H63.9v1.7h11.2  V51.6z M75.2,48.5c0-0.1,0-0.2,0-0.3H63.9c0,0.4,0,0.8,0,1.4v0.3h11.2V48.5z M157.9,46.5h10.3v-1.7h-10.3V46.5z M192,65.2h-34v1.7  h32.3C190.9,66.4,191.5,65.8,192,65.2z M157.9,43.1h10.3v-1.7h-10.3V43.1z M188.4,46.5c0.6-0.5,1.2-1.1,1.8-1.7h-11.8  c-0.6,0.6-1.1,1.2-1.7,1.7H188.4z M180.1,43.1H192c0.6-0.6,1.2-1.2,1.8-1.7h-12.2C181.2,41.9,180.7,42.5,180.1,43.1z M182.6,61.8  c-0.2,0.7-0.5,1.3-1.1,1.7h11.5c0.2-0.5,0.4-1.1,0.5-1.7H182.6z M168.2,56.7L168.2,56.7l4,0c0.6,0,1.1,0,1.5,0h18.5  c-0.4-0.6-0.9-1.2-1.4-1.7h-32.9v1.7H168.2z M157.9,61.8v1.7h10.3l0-1.7H157.9L157.9,61.8z M157.9,58.4v1.7h10.3l0-1.7H157.9z   M183.1,39.7h12.4c1.1-1,1.7-1.7,1.7-1.7h-12.5C184.1,38.6,183.6,39.2,183.1,39.7L183.1,39.7z M157.9,53.3h30.6  c-1.8-1-4.1-1.6-6.6-1.7h-24L157.9,53.3L157.9,53.3z M184.5,49.9c0.6-0.4,1.2-1,2-1.7h-11.4c-0.8,0.7-1.4,1.3-2,1.7H184.5  L184.5,49.9z M168.2,49.9v-1.7h-10.3v1.7H168.2z M182.5,60.1h10.9c-0.1-0.6-0.2-1.2-0.4-1.7h-11.6C182,58.9,182.4,59.5,182.5,60.1z   M157.9,70.3l19.7,0c3.8,0,7.1-0.6,9.7-1.7h-29.3L157.9,70.3L157.9,70.3z M168.2,39.7V38h-10.3v1.7H168.2z M168.2,51.4L168.2,51.4  c0.1,0,0.2,0,0.4,0H168.2z M110.9,62.4c-0.9,0.5-1.7,0.8-2.4,1.1h3.3L110.9,62.4L110.9,62.4z M255.7,58.4H245v1.7h10.7V58.4z   M274.3,53.3l-0.6-1.7l-28.7,0v1.7H274.3z M245,61.8v1.7h10.7v-1.7H245z M245,70.3h32.1l-0.5-1.7H245V70.3z M245,46.5h10.8v-1.7H245  V46.5z M275.4,39.7l-0.9-1.7H245v1.7H275.4z M245,55v1.7h30.6l-0.6-1.7H245L245,55z M277.3,43.1l-0.9-1.7H245v1.7H277.3z M245,65.2  v1.7h31.2l-0.5-1.7H245L245,65.2z M245,49.9h10.8v-1.7H245V49.9z"></path>
<path class="st3" d="M228.8,1.5h9.7v32.3h-11.2l-9.4-12.4c-3-4-7.1-9.3-8.1-11.3c0.4,2.7,0.5,7.2,0.6,9.9l0.3,13.8h-9.8V1.5h11.7  l10.8,13.2c2.8,3.4,5.6,7.2,6.7,9.5c-0.4-2.5-0.9-7.3-1-9.5L228.8,1.5L228.8,1.5z M131.2,20.1h17.7l2-5.3H131v-8h19.8l1.4-5.3h-31.9  v32.3h29.3l3-5.6h-21.5V20.1z M13.8,1.5H2.5v32.3h29.6l2-5.4H13.8V1.5z M74.3,28.4c0.8-1.4,0.9-2,0.9-5.1V1.5H63.9v20.8  c0,1.7,0,2.2-0.2,2.9c-0.5,2.4-3.3,3.8-8.1,3.8c-3.6,0-6.3-0.8-7.5-2.2c-0.8-0.9-1-1.4-1-3.9V1.5H35.9v22.6c0,3.1,0.6,4.4,2.4,6.1  c3.2,2.8,9.3,4.3,17.7,4.3C67.8,34.5,72.9,31,74.3,28.4L74.3,28.4z M116.1,28.5H97.5c-2.2,0-5.5,0.2-5.5,0.2s1.7-1.1,2.8-2.3  l20.4-20.2V1.5h-33l-2.5,5.4h17c3.3,0,5.6-0.2,5.6-0.2s-1.9,1.4-3.4,2.9L78.8,29.3v4.6h34.4L116.1,28.5L116.1,28.5z M197.3,33.8  h-12.5c-2.1-2.1-3-3-5.2-5.3c-5.5-5.8-7.2-7.3-9.1-7.9c-0.6-0.1-1.4-0.2-2.3-0.3v13.5h-10.3V1.5l19.7,0c9.7,0,15.9,3.8,15.9,9.5  c0,4.8-4.9,8.8-11.7,8.9c1.1,0.5,1.6,0.8,2.3,1.3C187.2,23.6,197.3,33.8,197.3,33.8L197.3,33.8z M182.7,11.2c0-2-1.3-3.3-4-3.9  c-1.3-0.3-3.6-0.5-6.3-0.5h-4.2l-0.1,8.7h4c4.8,0,6.8-0.3,8.3-1.1C181.9,13.7,182.7,12.5,182.7,11.2L182.7,11.2z M63.6,79.5  c0.6,0.8,1,1.8,1,3.1c0,1.5-0.5,2.6-1.2,3.4c-0.8,0.8-1.8,1.3-3.7,1.3H57v-9.4h2.5C61.4,77.9,62.6,78.3,63.6,79.5L63.6,79.5z   M62.9,82.8c0-1.3-0.2-2.3-0.8-3c-0.6-0.7-1.2-0.8-2.3-0.8h-1.2v7.2h1.2c1.2,0,2-0.3,2.5-1C62.7,84.6,62.9,83.7,62.9,82.8L62.9,82.8  z M67.3,87.3h1.5v-9.4h-1.5V87.3z M73.8,83h3.5v-1.1h-3.5V79h4.2l0.2-1.1h-5.9v9.4h6.1v-1.1h-4.5L73.8,83L73.8,83z M88.5,81.9  l-1.3-0.3c-1.2-0.3-1.6-0.7-1.6-1.3c0-0.9,0.8-1.4,2-1.4c0.9,0,1.6,0.2,2.6,0.7l0.7-0.9c-1-0.6-2.1-0.9-3.3-0.9  c-2.1,0-3.6,1.1-3.6,2.7c0,1.3,0.9,2,2.6,2.4l1.1,0.3c1.2,0.3,1.8,0.8,1.8,1.6c0,1-0.9,1.6-2.3,1.6c-1.1,0-2-0.3-2.9-0.8l-0.6,1  c1.1,0.6,2.2,0.8,3.5,0.8c2.8,0,4.1-1.6,4.1-2.9C91.1,83.1,89.9,82.3,88.5,81.9L88.5,81.9z M99.7,77.9h-7.3V79h2.8v8.3h1.5V79h2.8  L99.7,77.9z M104.7,77.9l3.5,9.4h-1.7l-1-2.7h-3.8l-0.9,2.7h-1.6l3.6-9.4H104.7z M105.2,83.6c-0.2-0.4-1.3-3.8-1.5-4.3h-0.1  c-0.2,0.5-1.3,3.9-1.5,4.3H105.2z M116.5,79.5c0.6,0.8,1,1.8,1,3.1c0,1.5-0.5,2.6-1.2,3.4c-0.8,0.8-1.8,1.3-3.7,1.3h-2.7v-9.4h2.5  C114.3,77.9,115.5,78.3,116.5,79.5L116.5,79.5z M115.8,82.8c0-1.3-0.2-2.3-0.8-3c-0.6-0.7-1.2-0.8-2.3-0.8h-1.2v7.2h1.2  c1.2,0,2-0.3,2.5-1C115.6,84.6,115.8,83.7,115.8,82.8L115.8,82.8z M126.3,77.9H119V79h2.8v8.3h1.5V79h2.8L126.3,77.9z M127,85.5  c-0.6,0-1.1,0.5-1.1,1c0,0.6,0.5,1,1.1,1c0.7,0,1.1-0.5,1.1-1C128.1,85.9,127.6,85.5,127,85.5z M141.2,79.5c0.6,0.8,1,1.8,1,3.1  c0,1.5-0.5,2.6-1.2,3.4c-0.8,0.8-1.8,1.3-3.7,1.3h-2.7v-9.4h2.5C139,77.9,140.2,78.3,141.2,79.5L141.2,79.5z M140.4,82.8  c0-1.3-0.2-2.3-0.8-3c-0.6-0.7-1.2-0.8-2.3-0.8h-1.2v7.2h1.2c1.2,0,2-0.3,2.5-1C140.3,84.6,140.4,83.7,140.4,82.8L140.4,82.8z   M146.3,83h3.5v-1.1h-3.5V79h4.2l0.2-1.1h-5.9v9.4h6.1v-1.1h-4.5V83z M159.1,85.1c0.5,0.6,1.4,1.9,1.6,2.2h-1.8  c-0.3-0.5-0.5-0.7-0.9-1.4c-0.8-1.2-1.1-1.6-1.9-2.3c-0.3-0.3-0.5-0.4-1-0.4v4.1h-1.5v-9.4h3c1.3,0,2,0.3,2.6,0.7c0.5,0.4,1,1,1,1.9  c0,1.5-1.1,2.6-2.9,2.6c0.5,0.4,0.8,0.7,0.9,0.9C158.4,84.2,158.7,84.6,159.1,85.1L159.1,85.1z M158,81.8c0.3-0.3,0.5-0.7,0.5-1.3  c0-0.7-0.4-1.2-1-1.4c-0.3-0.1-0.8-0.2-1.3-0.2h-1.1v3.3h1.1C157.1,82.3,157.6,82.1,158,81.8L158,81.8z M170.9,81.9l-1.3-0.3  c-1.2-0.3-1.6-0.7-1.6-1.3c0-0.9,0.8-1.4,2-1.4c0.9,0,1.6,0.2,2.6,0.7l0.7-0.9c-1-0.6-2.1-0.9-3.3-0.9c-2.1,0-3.6,1.1-3.6,2.7  c0,1.3,0.9,2,2.6,2.4l1.1,0.3c1.2,0.3,1.8,0.8,1.8,1.6c0,1-0.9,1.6-2.3,1.6c-1.1,0-2-0.3-2.9-0.8l-0.6,1c1.1,0.6,2.2,0.8,3.5,0.8  c2.9,0,4.1-1.6,4.1-2.9C173.5,83.1,172.3,82.3,170.9,81.9L170.9,81.9z M177.7,83h3.5v-1.1h-3.5V79h4.2l0.2-1.1h-5.9v9.4h6.1v-1.1  h-4.5L177.7,83L177.7,83z M186.4,83h3.5v-1.1h-3.5V79h4.2l0.2-1.1h-5.9v9.4h6.1v-1.1h-4.5L186.4,83L186.4,83z M193.9,85.5  c-0.6,0-1.1,0.5-1.1,1c0,0.6,0.5,1,1.1,1c0.6,0,1.1-0.5,1.1-1C195,85.9,194.6,85.5,193.9,85.5z M208.1,79.5c0.6,0.8,1,1.8,1,3.1  c0,1.5-0.5,2.6-1.2,3.4c-0.8,0.8-1.8,1.3-3.7,1.3h-2.7v-9.4h2.5C205.9,77.9,207.1,78.3,208.1,79.5L208.1,79.5z M207.4,82.8  c0-1.3-0.2-2.3-0.8-3c-0.6-0.7-1.2-0.8-2.3-0.8H203v7.2h1.2c1.2,0,2-0.3,2.5-1C207.2,84.6,207.4,83.7,207.4,82.8L207.4,82.8z   M211.7,87.3h1.5v-9.4h-1.5V87.3z M218.2,83h3.5v-1.1h-3.5V79h4.2l0.2-1.1h-5.9v9.4h6.1v-1.1h-4.5L218.2,83L218.2,83z M236.1,84.7  c0,1.3-0.9,2.1-2.2,2.4c-0.5,0.1-1.1,0.2-1.7,0.2h-3.3v-9.4h2.3c1.8,0,2.3,0,3,0.4c1,0.4,1.5,1.1,1.5,2c0,1-0.6,1.7-2,2.1  C235.3,82.6,236.1,83.5,236.1,84.7z M230.3,81.9h1.7c1,0,1.3-0.2,1.6-0.5c0.2-0.2,0.3-0.6,0.3-0.9c0-0.7-0.4-1.2-1.1-1.3  c-0.3-0.1-0.6-0.1-1.1-0.1h-1.5V81.9z M234.4,84.6c0-0.8-0.5-1.4-1.2-1.5c-0.3-0.1-0.6-0.1-1.1-0.1h-1.8v3.3h2.1  C233.4,86.2,234.4,85.8,234.4,84.6L234.4,84.6z M240.3,83h3.5v-1.1h-3.5V79h4.2l0.2-1.1h-5.9v9.4h6.1v-1.1h-4.5V83z M253.1,85.1  c0.5,0.6,1.4,1.9,1.6,2.2h-1.8c-0.3-0.5-0.5-0.7-0.9-1.4c-0.8-1.2-1.1-1.6-1.9-2.3c-0.3-0.3-0.5-0.4-1-0.4v4.1h-1.5v-9.4h3  c1.3,0,2,0.3,2.6,0.7c0.5,0.4,1,1,1,1.9c0,1.5-1.1,2.6-2.9,2.6c0.5,0.4,0.8,0.7,0.9,0.9C252.4,84.2,252.7,84.6,253.1,85.1  L253.1,85.1z M252,81.8c0.3-0.3,0.5-0.7,0.5-1.3c0-0.7-0.4-1.2-1-1.4c-0.3-0.1-0.8-0.2-1.3-0.2h-1.1v3.3h1.1  C251.1,82.3,251.6,82.1,252,81.8L252,81.8z M260.8,83.4h2v2.7c-0.4,0.2-1,0.4-1.6,0.4c-0.9,0-1.9-0.3-2.3-0.8  c-0.5-0.6-0.8-1.5-0.8-2.8c0-1.1,0.1-1.8,0.6-2.7c0.5-0.8,1.3-1.2,2.3-1.2c0.8,0,1.5,0.2,2.3,0.7l0.7-0.8c-0.8-0.6-1.9-0.9-3.1-0.9  c-1.1,0-1.9,0.2-2.7,0.8c-1.2,0.9-1.9,2.2-1.9,4c0,1.5,0.4,2.6,1.3,3.5c0.8,0.8,2,1.3,3.4,1.3c1.1,0,2.3-0.3,3.2-0.7v-4.4h-3.7  L260.8,83.4L260.8,83.4z M268.9,83h3.5v-1.1h-3.5V79h4.2l0.2-1.1h-5.9v9.4h6.1v-1.1h-4.5L268.9,83L268.9,83z M276.4,85.5  c-0.6,0-1.1,0.5-1.1,1c0,0.6,0.5,1,1.1,1c0.6,0,1.1-0.5,1.1-1C277.5,85.9,277,85.5,276.4,85.5z"></path>
</svg>
